<mxfile host="app.diagrams.net" modified="2024-07-06T18:00:21.035Z" agent="Mozilla/5.0 (Windows NT 10.0; Win64; x64; rv:127.0) Gecko/20100101 Firefox/127.0" etag="geb6y3V2StGiXu2S_DAb" version="24.6.4" type="device">
  <diagram name="Page-1" id="bV3ABZLD8Nov0vPXQ2AV">
    <mxGraphModel dx="6135" dy="835" grid="1" gridSize="10" guides="1" tooltips="1" connect="1" arrows="1" fold="1" page="1" pageScale="1" pageWidth="850" pageHeight="1100" math="0" shadow="0">
      <root>
        <mxCell id="0" />
        <mxCell id="1" parent="0" />
        <mxCell id="e2-MM5e5g2effqJGtoSD-115" value="" style="group" vertex="1" connectable="0" parent="1">
          <mxGeometry x="-1656.66" y="1311.14" width="970" height="80" as="geometry" />
        </mxCell>
        <mxCell id="e2-MM5e5g2effqJGtoSD-116" value="" style="shape=table;startSize=0;container=1;collapsible=0;childLayout=tableLayout;fontSize=16;" vertex="1" parent="e2-MM5e5g2effqJGtoSD-115">
          <mxGeometry y="40" width="431.1111111111111" height="40" as="geometry" />
        </mxCell>
        <mxCell id="e2-MM5e5g2effqJGtoSD-117" value="" style="shape=tableRow;horizontal=0;startSize=0;swimlaneHead=0;swimlaneBody=0;strokeColor=inherit;top=0;left=0;bottom=0;right=0;collapsible=0;dropTarget=0;fillColor=none;points=[[0,0.5],[1,0.5]];portConstraint=eastwest;fontSize=16;" vertex="1" parent="e2-MM5e5g2effqJGtoSD-116">
          <mxGeometry width="431.1111111111111" height="40" as="geometry" />
        </mxCell>
        <mxCell id="e2-MM5e5g2effqJGtoSD-118" value="&lt;font size=&quot;1&quot;&gt;&lt;span style=&quot;text-decoration-line: underline; font-size: 16px;&quot;&gt;KullanıcıID&lt;/span&gt;&lt;/font&gt;" style="shape=partialRectangle;html=1;whiteSpace=wrap;connectable=0;strokeColor=inherit;overflow=hidden;fillColor=none;top=0;left=0;bottom=0;right=0;pointerEvents=1;fontSize=16;" vertex="1" parent="e2-MM5e5g2effqJGtoSD-117">
          <mxGeometry width="108" height="40" as="geometry">
            <mxRectangle width="108" height="40" as="alternateBounds" />
          </mxGeometry>
        </mxCell>
        <mxCell id="e2-MM5e5g2effqJGtoSD-119" value="&lt;font style=&quot;font-size: 16px;&quot;&gt;Email&lt;/font&gt;" style="shape=partialRectangle;html=1;whiteSpace=wrap;connectable=0;strokeColor=inherit;overflow=hidden;fillColor=none;top=0;left=0;bottom=0;right=0;pointerEvents=1;fontSize=16;" vertex="1" parent="e2-MM5e5g2effqJGtoSD-117">
          <mxGeometry x="108" width="108" height="40" as="geometry">
            <mxRectangle width="108" height="40" as="alternateBounds" />
          </mxGeometry>
        </mxCell>
        <mxCell id="e2-MM5e5g2effqJGtoSD-120" value="&lt;font style=&quot;font-size: 16px;&quot;&gt;Şifre&lt;/font&gt;" style="shape=partialRectangle;html=1;whiteSpace=wrap;connectable=0;strokeColor=inherit;overflow=hidden;fillColor=none;top=0;left=0;bottom=0;right=0;pointerEvents=1;fontSize=16;" vertex="1" parent="e2-MM5e5g2effqJGtoSD-117">
          <mxGeometry x="216" width="107" height="40" as="geometry">
            <mxRectangle width="107" height="40" as="alternateBounds" />
          </mxGeometry>
        </mxCell>
        <mxCell id="e2-MM5e5g2effqJGtoSD-121" value="&lt;font style=&quot;font-size: 16px;&quot;&gt;Rol&lt;/font&gt;" style="shape=partialRectangle;html=1;whiteSpace=wrap;connectable=0;strokeColor=inherit;overflow=hidden;fillColor=none;top=0;left=0;bottom=0;right=0;pointerEvents=1;fontSize=16;" vertex="1" parent="e2-MM5e5g2effqJGtoSD-117">
          <mxGeometry x="323" width="108" height="40" as="geometry">
            <mxRectangle width="108" height="40" as="alternateBounds" />
          </mxGeometry>
        </mxCell>
        <mxCell id="e2-MM5e5g2effqJGtoSD-122" value="Kullanıcı" style="text;strokeColor=none;fillColor=none;html=1;fontSize=24;fontStyle=1;verticalAlign=middle;align=left;" vertex="1" parent="e2-MM5e5g2effqJGtoSD-115">
          <mxGeometry width="179.62962962962962" height="40" as="geometry" />
        </mxCell>
        <mxCell id="e2-MM5e5g2effqJGtoSD-123" value="" style="group" vertex="1" connectable="0" parent="1">
          <mxGeometry x="-1655.66" y="1618" width="560" height="88.73" as="geometry" />
        </mxCell>
        <mxCell id="e2-MM5e5g2effqJGtoSD-124" value="" style="shape=table;startSize=0;container=1;collapsible=0;childLayout=tableLayout;fontSize=16;" vertex="1" parent="e2-MM5e5g2effqJGtoSD-123">
          <mxGeometry y="39.43555555555556" width="518.5185185185185" height="39.43555555555556" as="geometry" />
        </mxCell>
        <mxCell id="e2-MM5e5g2effqJGtoSD-125" value="" style="shape=tableRow;horizontal=0;startSize=0;swimlaneHead=0;swimlaneBody=0;strokeColor=inherit;top=0;left=0;bottom=0;right=0;collapsible=0;dropTarget=0;fillColor=none;points=[[0,0.5],[1,0.5]];portConstraint=eastwest;fontSize=16;" vertex="1" parent="e2-MM5e5g2effqJGtoSD-124">
          <mxGeometry width="518.5185185185185" height="39" as="geometry" />
        </mxCell>
        <mxCell id="e2-MM5e5g2effqJGtoSD-126" value="&lt;u&gt;KullanıcıID&lt;/u&gt;" style="shape=partialRectangle;html=1;whiteSpace=wrap;connectable=0;strokeColor=inherit;overflow=hidden;fillColor=none;top=0;left=0;bottom=0;right=0;pointerEvents=1;fontSize=16;" vertex="1" parent="e2-MM5e5g2effqJGtoSD-125">
          <mxGeometry width="115" height="39" as="geometry">
            <mxRectangle width="115" height="39" as="alternateBounds" />
          </mxGeometry>
        </mxCell>
        <mxCell id="e2-MM5e5g2effqJGtoSD-127" value="isim" style="shape=partialRectangle;html=1;whiteSpace=wrap;connectable=0;strokeColor=inherit;overflow=hidden;fillColor=none;top=0;left=0;bottom=0;right=0;pointerEvents=1;fontSize=16;" vertex="1" parent="e2-MM5e5g2effqJGtoSD-125">
          <mxGeometry x="115" width="73" height="39" as="geometry">
            <mxRectangle width="73" height="39" as="alternateBounds" />
          </mxGeometry>
        </mxCell>
        <mxCell id="e2-MM5e5g2effqJGtoSD-128" value="Soyisim" style="shape=partialRectangle;html=1;whiteSpace=wrap;connectable=0;strokeColor=inherit;overflow=hidden;fillColor=none;top=0;left=0;bottom=0;right=0;pointerEvents=1;fontSize=16;" vertex="1" parent="e2-MM5e5g2effqJGtoSD-125">
          <mxGeometry x="188" width="71" height="39" as="geometry">
            <mxRectangle width="71" height="39" as="alternateBounds" />
          </mxGeometry>
        </mxCell>
        <mxCell id="e2-MM5e5g2effqJGtoSD-129" value="İl" style="shape=partialRectangle;html=1;whiteSpace=wrap;connectable=0;strokeColor=inherit;overflow=hidden;fillColor=none;top=0;left=0;bottom=0;right=0;pointerEvents=1;fontSize=16;" vertex="1" parent="e2-MM5e5g2effqJGtoSD-125">
          <mxGeometry x="259" width="87" height="39" as="geometry">
            <mxRectangle width="87" height="39" as="alternateBounds" />
          </mxGeometry>
        </mxCell>
        <mxCell id="e2-MM5e5g2effqJGtoSD-130" value="İlçe" style="shape=partialRectangle;html=1;whiteSpace=wrap;connectable=0;strokeColor=inherit;overflow=hidden;fillColor=none;top=0;left=0;bottom=0;right=0;pointerEvents=1;fontSize=16;" vertex="1" parent="e2-MM5e5g2effqJGtoSD-125">
          <mxGeometry x="346" width="85" height="39" as="geometry">
            <mxRectangle width="85" height="39" as="alternateBounds" />
          </mxGeometry>
        </mxCell>
        <mxCell id="e2-MM5e5g2effqJGtoSD-131" value="Mahalle" style="shape=partialRectangle;html=1;whiteSpace=wrap;connectable=0;strokeColor=inherit;overflow=hidden;fillColor=none;top=0;left=0;bottom=0;right=0;pointerEvents=1;fontSize=16;" vertex="1" parent="e2-MM5e5g2effqJGtoSD-125">
          <mxGeometry x="431" width="88" height="39" as="geometry">
            <mxRectangle width="88" height="39" as="alternateBounds" />
          </mxGeometry>
        </mxCell>
        <mxCell id="e2-MM5e5g2effqJGtoSD-132" value="Hayvan Sahibi" style="text;strokeColor=none;fillColor=none;html=1;fontSize=24;fontStyle=1;verticalAlign=middle;align=left;" vertex="1" parent="e2-MM5e5g2effqJGtoSD-123">
          <mxGeometry width="103.7037037037037" height="39.43555555555556" as="geometry" />
        </mxCell>
        <mxCell id="e2-MM5e5g2effqJGtoSD-133" value="" style="group" vertex="1" connectable="0" parent="1">
          <mxGeometry x="-1656.66" y="1441.14" width="800" height="90" as="geometry" />
        </mxCell>
        <mxCell id="e2-MM5e5g2effqJGtoSD-134" value="" style="shape=table;startSize=0;container=1;collapsible=0;childLayout=tableLayout;fontSize=16;" vertex="1" parent="e2-MM5e5g2effqJGtoSD-133">
          <mxGeometry y="10" width="915" height="40" as="geometry" />
        </mxCell>
        <mxCell id="e2-MM5e5g2effqJGtoSD-135" value="" style="shape=tableRow;horizontal=0;startSize=0;swimlaneHead=0;swimlaneBody=0;strokeColor=inherit;top=0;left=0;bottom=0;right=0;collapsible=0;dropTarget=0;fillColor=none;points=[[0,0.5],[1,0.5]];portConstraint=eastwest;fontSize=16;" vertex="1" parent="e2-MM5e5g2effqJGtoSD-134">
          <mxGeometry width="915" height="40" as="geometry" />
        </mxCell>
        <mxCell id="e2-MM5e5g2effqJGtoSD-136" value="&lt;u&gt;KullanıcıID&lt;/u&gt;" style="shape=partialRectangle;html=1;whiteSpace=wrap;connectable=0;strokeColor=inherit;overflow=hidden;fillColor=none;top=0;left=0;bottom=0;right=0;pointerEvents=1;fontSize=16;" vertex="1" parent="e2-MM5e5g2effqJGtoSD-135">
          <mxGeometry width="83" height="40" as="geometry">
            <mxRectangle width="83" height="40" as="alternateBounds" />
          </mxGeometry>
        </mxCell>
        <mxCell id="e2-MM5e5g2effqJGtoSD-137" value="İsim" style="shape=partialRectangle;html=1;whiteSpace=wrap;connectable=0;strokeColor=inherit;overflow=hidden;fillColor=none;top=0;left=0;bottom=0;right=0;pointerEvents=1;fontSize=16;" vertex="1" parent="e2-MM5e5g2effqJGtoSD-135">
          <mxGeometry x="83" width="86" height="40" as="geometry">
            <mxRectangle width="86" height="40" as="alternateBounds" />
          </mxGeometry>
        </mxCell>
        <mxCell id="e2-MM5e5g2effqJGtoSD-138" value="Soyisim" style="shape=partialRectangle;html=1;whiteSpace=wrap;connectable=0;strokeColor=inherit;overflow=hidden;fillColor=none;top=0;left=0;bottom=0;right=0;pointerEvents=1;fontSize=16;" vertex="1" parent="e2-MM5e5g2effqJGtoSD-135">
          <mxGeometry x="169" width="82" height="40" as="geometry">
            <mxRectangle width="82" height="40" as="alternateBounds" />
          </mxGeometry>
        </mxCell>
        <mxCell id="e2-MM5e5g2effqJGtoSD-139" value="TCNO" style="shape=partialRectangle;html=1;whiteSpace=wrap;connectable=0;strokeColor=inherit;overflow=hidden;fillColor=none;top=0;left=0;bottom=0;right=0;pointerEvents=1;fontSize=16;" vertex="1" parent="e2-MM5e5g2effqJGtoSD-135">
          <mxGeometry x="251" width="84" height="40" as="geometry">
            <mxRectangle width="84" height="40" as="alternateBounds" />
          </mxGeometry>
        </mxCell>
        <mxCell id="e2-MM5e5g2effqJGtoSD-140" value="TelefonNo" style="shape=partialRectangle;html=1;whiteSpace=wrap;connectable=0;strokeColor=inherit;overflow=hidden;fillColor=none;top=0;left=0;bottom=0;right=0;pointerEvents=1;fontSize=16;" vertex="1" parent="e2-MM5e5g2effqJGtoSD-135">
          <mxGeometry x="335" width="95" height="40" as="geometry">
            <mxRectangle width="95" height="40" as="alternateBounds" />
          </mxGeometry>
        </mxCell>
        <mxCell id="e2-MM5e5g2effqJGtoSD-141" value="İlçe" style="shape=partialRectangle;html=1;whiteSpace=wrap;connectable=0;strokeColor=inherit;overflow=hidden;fillColor=none;top=0;left=0;bottom=0;right=0;pointerEvents=1;fontSize=16;" vertex="1" parent="e2-MM5e5g2effqJGtoSD-135">
          <mxGeometry x="430" width="80" height="40" as="geometry">
            <mxRectangle width="80" height="40" as="alternateBounds" />
          </mxGeometry>
        </mxCell>
        <mxCell id="e2-MM5e5g2effqJGtoSD-142" value="Mahalle" style="shape=partialRectangle;html=1;whiteSpace=wrap;connectable=0;strokeColor=inherit;overflow=hidden;fillColor=none;top=0;left=0;bottom=0;right=0;pointerEvents=1;fontSize=16;" vertex="1" parent="e2-MM5e5g2effqJGtoSD-135">
          <mxGeometry x="510" width="93" height="40" as="geometry">
            <mxRectangle width="93" height="40" as="alternateBounds" />
          </mxGeometry>
        </mxCell>
        <mxCell id="e2-MM5e5g2effqJGtoSD-143" value="İl" style="shape=partialRectangle;html=1;whiteSpace=wrap;connectable=0;strokeColor=inherit;overflow=hidden;fillColor=none;top=0;left=0;bottom=0;right=0;pointerEvents=1;fontSize=16;" vertex="1" parent="e2-MM5e5g2effqJGtoSD-135">
          <mxGeometry x="603" width="82" height="40" as="geometry">
            <mxRectangle width="82" height="40" as="alternateBounds" />
          </mxGeometry>
        </mxCell>
        <mxCell id="e2-MM5e5g2effqJGtoSD-144" value="OdaNo" style="shape=partialRectangle;html=1;whiteSpace=wrap;connectable=0;strokeColor=inherit;overflow=hidden;fillColor=none;top=0;left=0;bottom=0;right=0;pointerEvents=1;fontSize=16;" vertex="1" parent="e2-MM5e5g2effqJGtoSD-135">
          <mxGeometry x="685" width="115" height="40" as="geometry">
            <mxRectangle width="115" height="40" as="alternateBounds" />
          </mxGeometry>
        </mxCell>
        <mxCell id="e2-MM5e5g2effqJGtoSD-145" value="AdminID" style="shape=partialRectangle;html=1;whiteSpace=wrap;connectable=0;strokeColor=inherit;overflow=hidden;fillColor=none;top=0;left=0;bottom=0;right=0;pointerEvents=1;fontSize=16;" vertex="1" parent="e2-MM5e5g2effqJGtoSD-135">
          <mxGeometry x="800" width="115" height="40" as="geometry">
            <mxRectangle width="115" height="40" as="alternateBounds" />
          </mxGeometry>
        </mxCell>
        <mxCell id="e2-MM5e5g2effqJGtoSD-146" value="Veteriner" style="text;strokeColor=none;fillColor=none;html=1;fontSize=24;fontStyle=1;verticalAlign=middle;align=left;" vertex="1" parent="e2-MM5e5g2effqJGtoSD-133">
          <mxGeometry y="-30" width="111.33521581282776" height="40" as="geometry" />
        </mxCell>
        <mxCell id="e2-MM5e5g2effqJGtoSD-147" value="" style="shape=table;startSize=0;container=1;collapsible=0;childLayout=tableLayout;fontSize=16;" vertex="1" parent="1">
          <mxGeometry x="-690.0047887323943" y="1350" width="446.6714553990612" height="44.92000000000007" as="geometry" />
        </mxCell>
        <mxCell id="e2-MM5e5g2effqJGtoSD-148" value="" style="shape=tableRow;horizontal=0;startSize=0;swimlaneHead=0;swimlaneBody=0;strokeColor=inherit;top=0;left=0;bottom=0;right=0;collapsible=0;dropTarget=0;fillColor=none;points=[[0,0.5],[1,0.5]];portConstraint=eastwest;fontSize=16;" vertex="1" parent="e2-MM5e5g2effqJGtoSD-147">
          <mxGeometry width="446.6714553990612" height="45" as="geometry" />
        </mxCell>
        <mxCell id="e2-MM5e5g2effqJGtoSD-149" value="&lt;font style=&quot;font-size: 16px;&quot;&gt;&lt;u&gt;Hayvan SahibiID&lt;/u&gt;&lt;br&gt;&lt;/font&gt;" style="shape=partialRectangle;html=1;whiteSpace=wrap;connectable=0;strokeColor=inherit;overflow=hidden;fillColor=none;top=0;left=0;bottom=0;right=0;pointerEvents=1;fontSize=16;" vertex="1" parent="e2-MM5e5g2effqJGtoSD-148">
          <mxGeometry width="147" height="45" as="geometry">
            <mxRectangle width="147" height="45" as="alternateBounds" />
          </mxGeometry>
        </mxCell>
        <mxCell id="e2-MM5e5g2effqJGtoSD-150" value="&lt;u&gt;VeterinerID&lt;/u&gt;" style="shape=partialRectangle;html=1;whiteSpace=wrap;connectable=0;strokeColor=inherit;overflow=hidden;fillColor=none;top=0;left=0;bottom=0;right=0;pointerEvents=1;fontSize=16;" vertex="1" parent="e2-MM5e5g2effqJGtoSD-148">
          <mxGeometry x="147" width="100" height="45" as="geometry">
            <mxRectangle width="100" height="45" as="alternateBounds" />
          </mxGeometry>
        </mxCell>
        <mxCell id="e2-MM5e5g2effqJGtoSD-151" value="&lt;font style=&quot;font-size: 16px;&quot;&gt;Açıklama&lt;/font&gt;" style="shape=partialRectangle;html=1;whiteSpace=wrap;connectable=0;strokeColor=inherit;overflow=hidden;fillColor=none;top=0;left=0;bottom=0;right=0;pointerEvents=1;fontSize=16;" vertex="1" parent="e2-MM5e5g2effqJGtoSD-148">
          <mxGeometry x="247" width="100" height="45" as="geometry">
            <mxRectangle width="100" height="45" as="alternateBounds" />
          </mxGeometry>
        </mxCell>
        <mxCell id="e2-MM5e5g2effqJGtoSD-152" value="&lt;font style=&quot;font-size: 16px;&quot;&gt;Puan&lt;/font&gt;" style="shape=partialRectangle;html=1;whiteSpace=wrap;connectable=0;strokeColor=inherit;overflow=hidden;fillColor=none;top=0;left=0;bottom=0;right=0;pointerEvents=1;fontSize=16;" vertex="1" parent="e2-MM5e5g2effqJGtoSD-148">
          <mxGeometry x="347" width="100" height="45" as="geometry">
            <mxRectangle width="100" height="45" as="alternateBounds" />
          </mxGeometry>
        </mxCell>
        <mxCell id="e2-MM5e5g2effqJGtoSD-153" value="ReviewVerir" style="text;strokeColor=none;fillColor=none;html=1;fontSize=24;fontStyle=1;verticalAlign=middle;align=left;" vertex="1" parent="1">
          <mxGeometry x="-690.0047887323943" y="1310" width="164.81481481481484" height="40" as="geometry" />
        </mxCell>
        <mxCell id="e2-MM5e5g2effqJGtoSD-154" value="" style="shape=table;startSize=0;container=1;collapsible=0;childLayout=tableLayout;fontSize=16;" vertex="1" parent="1">
          <mxGeometry x="-622" y="1691.1399999999996" width="210" height="48.36" as="geometry" />
        </mxCell>
        <mxCell id="e2-MM5e5g2effqJGtoSD-155" value="" style="shape=tableRow;horizontal=0;startSize=0;swimlaneHead=0;swimlaneBody=0;strokeColor=inherit;top=0;left=0;bottom=0;right=0;collapsible=0;dropTarget=0;fillColor=none;points=[[0,0.5],[1,0.5]];portConstraint=eastwest;fontSize=16;" vertex="1" parent="e2-MM5e5g2effqJGtoSD-154">
          <mxGeometry width="210" height="48" as="geometry" />
        </mxCell>
        <mxCell id="e2-MM5e5g2effqJGtoSD-156" value="&lt;u&gt;&lt;span style=&quot;&quot;&gt;&lt;font style=&quot;font-size: 16px;&quot;&gt;RandevuID&lt;/font&gt;&lt;/span&gt;&lt;/u&gt;" style="shape=partialRectangle;html=1;whiteSpace=wrap;connectable=0;strokeColor=inherit;overflow=hidden;fillColor=none;top=0;left=0;bottom=0;right=0;pointerEvents=1;fontSize=16;" vertex="1" parent="e2-MM5e5g2effqJGtoSD-155">
          <mxGeometry width="105" height="48" as="geometry">
            <mxRectangle width="105" height="48" as="alternateBounds" />
          </mxGeometry>
        </mxCell>
        <mxCell id="e2-MM5e5g2effqJGtoSD-157" value="&lt;div&gt;&lt;span style=&quot;text-decoration-line: underline;&quot;&gt;&lt;font style=&quot;font-size: 16px;&quot;&gt;VeterinerID&lt;/font&gt;&lt;/span&gt;&lt;/div&gt;" style="shape=partialRectangle;html=1;whiteSpace=wrap;connectable=0;strokeColor=inherit;overflow=hidden;fillColor=none;top=0;left=0;bottom=0;right=0;pointerEvents=1;fontSize=16;" vertex="1" parent="e2-MM5e5g2effqJGtoSD-155">
          <mxGeometry x="105" width="105" height="48" as="geometry">
            <mxRectangle width="105" height="48" as="alternateBounds" />
          </mxGeometry>
        </mxCell>
        <mxCell id="e2-MM5e5g2effqJGtoSD-158" value="Verir" style="text;strokeColor=none;fillColor=none;html=1;fontSize=24;fontStyle=1;verticalAlign=middle;align=left;" vertex="1" parent="1">
          <mxGeometry x="-622" y="1651.1399999999996" width="100" height="40" as="geometry" />
        </mxCell>
        <mxCell id="e2-MM5e5g2effqJGtoSD-159" value="" style="shape=table;startSize=0;container=1;collapsible=0;childLayout=tableLayout;fontSize=16;" vertex="1" parent="1">
          <mxGeometry x="-622" y="1825.61" width="290" height="47.17" as="geometry" />
        </mxCell>
        <mxCell id="e2-MM5e5g2effqJGtoSD-160" value="" style="shape=tableRow;horizontal=0;startSize=0;swimlaneHead=0;swimlaneBody=0;strokeColor=inherit;top=0;left=0;bottom=0;right=0;collapsible=0;dropTarget=0;fillColor=none;points=[[0,0.5],[1,0.5]];portConstraint=eastwest;fontSize=16;" vertex="1" parent="e2-MM5e5g2effqJGtoSD-159">
          <mxGeometry width="290" height="47" as="geometry" />
        </mxCell>
        <mxCell id="e2-MM5e5g2effqJGtoSD-161" value="&lt;u&gt;FaturaID&lt;/u&gt;" style="shape=partialRectangle;html=1;whiteSpace=wrap;connectable=0;strokeColor=inherit;overflow=hidden;fillColor=none;top=0;left=0;bottom=0;right=0;pointerEvents=1;fontSize=16;" vertex="1" parent="e2-MM5e5g2effqJGtoSD-160">
          <mxGeometry width="97" height="47" as="geometry">
            <mxRectangle width="97" height="47" as="alternateBounds" />
          </mxGeometry>
        </mxCell>
        <mxCell id="e2-MM5e5g2effqJGtoSD-162" value="&lt;u&gt;SahipID&lt;/u&gt;" style="shape=partialRectangle;html=1;whiteSpace=wrap;connectable=0;strokeColor=inherit;overflow=hidden;fillColor=none;top=0;left=0;bottom=0;right=0;pointerEvents=1;fontSize=16;" vertex="1" parent="e2-MM5e5g2effqJGtoSD-160">
          <mxGeometry x="97" width="96" height="47" as="geometry">
            <mxRectangle width="96" height="47" as="alternateBounds" />
          </mxGeometry>
        </mxCell>
        <mxCell id="e2-MM5e5g2effqJGtoSD-163" value="Ücret" style="shape=partialRectangle;html=1;whiteSpace=wrap;connectable=0;strokeColor=inherit;overflow=hidden;fillColor=none;top=0;left=0;bottom=0;right=0;pointerEvents=1;fontSize=16;" vertex="1" parent="e2-MM5e5g2effqJGtoSD-160">
          <mxGeometry x="193" width="97" height="47" as="geometry">
            <mxRectangle width="97" height="47" as="alternateBounds" />
          </mxGeometry>
        </mxCell>
        <mxCell id="e2-MM5e5g2effqJGtoSD-164" value="&lt;div&gt;Muayene Faturası&lt;/div&gt;" style="text;strokeColor=none;fillColor=none;html=1;fontSize=24;fontStyle=1;verticalAlign=middle;align=left;" vertex="1" parent="1">
          <mxGeometry x="-622" y="1781.14" width="100" height="40" as="geometry" />
        </mxCell>
        <mxCell id="e2-MM5e5g2effqJGtoSD-165" value="" style="group" vertex="1" connectable="0" parent="1">
          <mxGeometry x="-1655.66" y="1731.14" width="540" height="80" as="geometry" />
        </mxCell>
        <mxCell id="e2-MM5e5g2effqJGtoSD-166" value="" style="shape=table;startSize=0;container=1;collapsible=0;childLayout=tableLayout;fontSize=16;" vertex="1" parent="e2-MM5e5g2effqJGtoSD-165">
          <mxGeometry y="40" width="365.65999999999985" height="40" as="geometry" />
        </mxCell>
        <mxCell id="e2-MM5e5g2effqJGtoSD-167" value="" style="shape=tableRow;horizontal=0;startSize=0;swimlaneHead=0;swimlaneBody=0;strokeColor=inherit;top=0;left=0;bottom=0;right=0;collapsible=0;dropTarget=0;fillColor=none;points=[[0,0.5],[1,0.5]];portConstraint=eastwest;fontSize=16;" vertex="1" parent="e2-MM5e5g2effqJGtoSD-166">
          <mxGeometry width="365.65999999999985" height="40" as="geometry" />
        </mxCell>
        <mxCell id="e2-MM5e5g2effqJGtoSD-168" value="&lt;u&gt;&lt;span style=&quot;&quot;&gt;&lt;font style=&quot;font-size: 16px;&quot;&gt;İlaçID&lt;/font&gt;&lt;/span&gt;&lt;/u&gt;" style="shape=partialRectangle;html=1;whiteSpace=wrap;connectable=0;strokeColor=inherit;overflow=hidden;fillColor=none;top=0;left=0;bottom=0;right=0;pointerEvents=1;fontSize=16;" vertex="1" parent="e2-MM5e5g2effqJGtoSD-167">
          <mxGeometry width="86" height="40" as="geometry">
            <mxRectangle width="86" height="40" as="alternateBounds" />
          </mxGeometry>
        </mxCell>
        <mxCell id="e2-MM5e5g2effqJGtoSD-169" value="&lt;font style=&quot;font-size: 16px;&quot;&gt;İsim&lt;/font&gt;" style="shape=partialRectangle;html=1;whiteSpace=wrap;connectable=0;strokeColor=inherit;overflow=hidden;fillColor=none;top=0;left=0;bottom=0;right=0;pointerEvents=1;fontSize=16;" vertex="1" parent="e2-MM5e5g2effqJGtoSD-167">
          <mxGeometry x="86" width="49" height="40" as="geometry">
            <mxRectangle width="49" height="40" as="alternateBounds" />
          </mxGeometry>
        </mxCell>
        <mxCell id="e2-MM5e5g2effqJGtoSD-170" value="&lt;font style=&quot;font-size: 16px;&quot;&gt;Fiyat&lt;/font&gt;" style="shape=partialRectangle;html=1;whiteSpace=wrap;connectable=0;strokeColor=inherit;overflow=hidden;fillColor=none;top=0;left=0;bottom=0;right=0;pointerEvents=1;fontSize=16;" vertex="1" parent="e2-MM5e5g2effqJGtoSD-167">
          <mxGeometry x="135" width="68" height="40" as="geometry">
            <mxRectangle width="68" height="40" as="alternateBounds" />
          </mxGeometry>
        </mxCell>
        <mxCell id="e2-MM5e5g2effqJGtoSD-171" value="&lt;div&gt;Miktar&lt;/div&gt;" style="shape=partialRectangle;html=1;whiteSpace=wrap;connectable=0;strokeColor=inherit;overflow=hidden;fillColor=none;top=0;left=0;bottom=0;right=0;pointerEvents=1;fontSize=16;" vertex="1" parent="e2-MM5e5g2effqJGtoSD-167">
          <mxGeometry x="203" width="67" height="40" as="geometry">
            <mxRectangle width="67" height="40" as="alternateBounds" />
          </mxGeometry>
        </mxCell>
        <mxCell id="e2-MM5e5g2effqJGtoSD-172" value="AdminID" style="shape=partialRectangle;html=1;whiteSpace=wrap;connectable=0;strokeColor=inherit;overflow=hidden;fillColor=none;top=0;left=0;bottom=0;right=0;pointerEvents=1;fontSize=16;" vertex="1" parent="e2-MM5e5g2effqJGtoSD-167">
          <mxGeometry x="270" width="96" height="40" as="geometry">
            <mxRectangle width="96" height="40" as="alternateBounds" />
          </mxGeometry>
        </mxCell>
        <mxCell id="e2-MM5e5g2effqJGtoSD-173" value="İlaçlar" style="text;strokeColor=none;fillColor=none;html=1;fontSize=24;fontStyle=1;verticalAlign=middle;align=left;" vertex="1" parent="e2-MM5e5g2effqJGtoSD-165">
          <mxGeometry width="100" height="40" as="geometry" />
        </mxCell>
        <mxCell id="e2-MM5e5g2effqJGtoSD-174" value="Admin" style="text;strokeColor=none;fillColor=none;html=1;fontSize=24;fontStyle=1;verticalAlign=middle;align=left;" vertex="1" parent="1">
          <mxGeometry x="-1655.66" y="1517.8600000000001" width="187.03703703703707" height="40" as="geometry" />
        </mxCell>
        <mxCell id="e2-MM5e5g2effqJGtoSD-175" value="" style="shape=table;startSize=0;container=1;collapsible=0;childLayout=tableLayout;fontSize=16;" vertex="1" parent="1">
          <mxGeometry x="-1655.6633333333334" y="1881.9600000000005" width="341.6666666666667" height="39.18" as="geometry" />
        </mxCell>
        <mxCell id="e2-MM5e5g2effqJGtoSD-176" value="" style="shape=tableRow;horizontal=0;startSize=0;swimlaneHead=0;swimlaneBody=0;strokeColor=inherit;top=0;left=0;bottom=0;right=0;collapsible=0;dropTarget=0;fillColor=none;points=[[0,0.5],[1,0.5]];portConstraint=eastwest;fontSize=16;" vertex="1" parent="e2-MM5e5g2effqJGtoSD-175">
          <mxGeometry width="341.6666666666667" height="39" as="geometry" />
        </mxCell>
        <mxCell id="e2-MM5e5g2effqJGtoSD-177" value="&lt;u&gt;RandevuID&lt;/u&gt;" style="shape=partialRectangle;html=1;whiteSpace=wrap;connectable=0;strokeColor=inherit;overflow=hidden;fillColor=none;top=0;left=0;bottom=0;right=0;pointerEvents=1;fontSize=16;" vertex="1" parent="e2-MM5e5g2effqJGtoSD-176">
          <mxGeometry width="85" height="39" as="geometry">
            <mxRectangle width="85" height="39" as="alternateBounds" />
          </mxGeometry>
        </mxCell>
        <mxCell id="e2-MM5e5g2effqJGtoSD-178" value="Gün" style="shape=partialRectangle;html=1;whiteSpace=wrap;connectable=0;strokeColor=inherit;overflow=hidden;fillColor=none;top=0;left=0;bottom=0;right=0;pointerEvents=1;fontSize=16;" vertex="1" parent="e2-MM5e5g2effqJGtoSD-176">
          <mxGeometry x="85" width="87" height="39" as="geometry">
            <mxRectangle width="87" height="39" as="alternateBounds" />
          </mxGeometry>
        </mxCell>
        <mxCell id="e2-MM5e5g2effqJGtoSD-179" value="Saat" style="shape=partialRectangle;html=1;whiteSpace=wrap;connectable=0;strokeColor=inherit;overflow=hidden;fillColor=none;top=0;left=0;bottom=0;right=0;pointerEvents=1;fontSize=16;" vertex="1" parent="e2-MM5e5g2effqJGtoSD-176">
          <mxGeometry x="172" width="85" height="39" as="geometry">
            <mxRectangle width="85" height="39" as="alternateBounds" />
          </mxGeometry>
        </mxCell>
        <mxCell id="e2-MM5e5g2effqJGtoSD-180" value="SahipID" style="shape=partialRectangle;html=1;whiteSpace=wrap;connectable=0;strokeColor=inherit;overflow=hidden;fillColor=none;top=0;left=0;bottom=0;right=0;pointerEvents=1;fontSize=16;" vertex="1" parent="e2-MM5e5g2effqJGtoSD-176">
          <mxGeometry x="257" width="85" height="39" as="geometry">
            <mxRectangle width="85" height="39" as="alternateBounds" />
          </mxGeometry>
        </mxCell>
        <mxCell id="e2-MM5e5g2effqJGtoSD-181" value="&lt;div&gt;Randevu&lt;/div&gt;" style="text;strokeColor=none;fillColor=none;html=1;fontSize=24;fontStyle=1;verticalAlign=middle;align=left;" vertex="1" parent="1">
          <mxGeometry x="-1655.6633333333334" y="1831.9600000000003" width="142.59259259259258" height="39.18" as="geometry" />
        </mxCell>
        <mxCell id="e2-MM5e5g2effqJGtoSD-182" value="" style="shape=table;startSize=0;container=1;collapsible=0;childLayout=tableLayout;fontSize=16;" vertex="1" parent="1">
          <mxGeometry x="-1655.66" y="1561.14" width="175.66" height="40" as="geometry" />
        </mxCell>
        <mxCell id="e2-MM5e5g2effqJGtoSD-183" value="" style="shape=tableRow;horizontal=0;startSize=0;swimlaneHead=0;swimlaneBody=0;strokeColor=inherit;top=0;left=0;bottom=0;right=0;collapsible=0;dropTarget=0;fillColor=none;points=[[0,0.5],[1,0.5]];portConstraint=eastwest;fontSize=16;" vertex="1" parent="e2-MM5e5g2effqJGtoSD-182">
          <mxGeometry width="175.66" height="40" as="geometry" />
        </mxCell>
        <mxCell id="e2-MM5e5g2effqJGtoSD-184" value="&lt;u&gt;KullanıcıID&lt;/u&gt;" style="shape=partialRectangle;html=1;whiteSpace=wrap;connectable=0;strokeColor=inherit;overflow=hidden;fillColor=none;top=0;left=0;bottom=0;right=0;pointerEvents=1;fontSize=16;" vertex="1" parent="e2-MM5e5g2effqJGtoSD-183">
          <mxGeometry width="176" height="40" as="geometry">
            <mxRectangle width="176" height="40" as="alternateBounds" />
          </mxGeometry>
        </mxCell>
        <mxCell id="e2-MM5e5g2effqJGtoSD-185" value="" style="group" connectable="0" vertex="1" parent="1">
          <mxGeometry x="-1655.66" y="1949.42" width="640" height="80" as="geometry" />
        </mxCell>
        <mxCell id="e2-MM5e5g2effqJGtoSD-186" value="" style="shape=table;startSize=0;container=1;collapsible=0;childLayout=tableLayout;fontSize=16;" vertex="1" parent="e2-MM5e5g2effqJGtoSD-185">
          <mxGeometry y="40" width="369.8822222222221" height="40" as="geometry" />
        </mxCell>
        <mxCell id="e2-MM5e5g2effqJGtoSD-187" value="" style="shape=tableRow;horizontal=0;startSize=0;swimlaneHead=0;swimlaneBody=0;strokeColor=inherit;top=0;left=0;bottom=0;right=0;collapsible=0;dropTarget=0;fillColor=none;points=[[0,0.5],[1,0.5]];portConstraint=eastwest;fontSize=16;" vertex="1" parent="e2-MM5e5g2effqJGtoSD-186">
          <mxGeometry width="369.8822222222221" height="40" as="geometry" />
        </mxCell>
        <mxCell id="e2-MM5e5g2effqJGtoSD-188" value="&lt;u&gt;ReçeteID&lt;/u&gt;" style="shape=partialRectangle;html=1;whiteSpace=wrap;connectable=0;strokeColor=inherit;overflow=hidden;fillColor=none;top=0;left=0;bottom=0;right=0;pointerEvents=1;fontSize=16;" vertex="1" parent="e2-MM5e5g2effqJGtoSD-187">
          <mxGeometry width="71" height="40" as="geometry">
            <mxRectangle width="71" height="40" as="alternateBounds" />
          </mxGeometry>
        </mxCell>
        <mxCell id="e2-MM5e5g2effqJGtoSD-189" value="Tarih" style="shape=partialRectangle;html=1;whiteSpace=wrap;connectable=0;strokeColor=inherit;overflow=hidden;fillColor=none;top=0;left=0;bottom=0;right=0;pointerEvents=1;fontSize=16;" vertex="1" parent="e2-MM5e5g2effqJGtoSD-187">
          <mxGeometry x="71" width="71" height="40" as="geometry">
            <mxRectangle width="71" height="40" as="alternateBounds" />
          </mxGeometry>
        </mxCell>
        <mxCell id="e2-MM5e5g2effqJGtoSD-190" value="VeterinerID" style="shape=partialRectangle;html=1;whiteSpace=wrap;connectable=0;strokeColor=inherit;overflow=hidden;fillColor=none;top=0;left=0;bottom=0;right=0;pointerEvents=1;fontSize=16;" vertex="1" parent="e2-MM5e5g2effqJGtoSD-187">
          <mxGeometry x="142" width="114" height="40" as="geometry">
            <mxRectangle width="114" height="40" as="alternateBounds" />
          </mxGeometry>
        </mxCell>
        <mxCell id="e2-MM5e5g2effqJGtoSD-191" value="HastaHayvanID" style="shape=partialRectangle;html=1;whiteSpace=wrap;connectable=0;strokeColor=inherit;overflow=hidden;fillColor=none;top=0;left=0;bottom=0;right=0;pointerEvents=1;fontSize=16;" vertex="1" parent="e2-MM5e5g2effqJGtoSD-187">
          <mxGeometry x="256" width="114" height="40" as="geometry">
            <mxRectangle width="114" height="40" as="alternateBounds" />
          </mxGeometry>
        </mxCell>
        <mxCell id="e2-MM5e5g2effqJGtoSD-192" value="Reçete" style="text;strokeColor=none;fillColor=none;html=1;fontSize=24;fontStyle=1;verticalAlign=middle;align=left;" vertex="1" parent="e2-MM5e5g2effqJGtoSD-185">
          <mxGeometry width="118.51851851851852" height="40" as="geometry" />
        </mxCell>
        <mxCell id="e2-MM5e5g2effqJGtoSD-193" value="" style="group" connectable="0" vertex="1" parent="1">
          <mxGeometry x="-1350" y="2080" width="730" height="80" as="geometry" />
        </mxCell>
        <mxCell id="e2-MM5e5g2effqJGtoSD-194" value="" style="shape=table;startSize=0;container=1;collapsible=0;childLayout=tableLayout;fontSize=16;" vertex="1" parent="e2-MM5e5g2effqJGtoSD-193">
          <mxGeometry x="-305.65999999999997" y="4.8700000000000045" width="486" height="45.13000000000011" as="geometry" />
        </mxCell>
        <mxCell id="e2-MM5e5g2effqJGtoSD-195" value="" style="shape=tableRow;horizontal=0;startSize=0;swimlaneHead=0;swimlaneBody=0;strokeColor=inherit;top=0;left=0;bottom=0;right=0;collapsible=0;dropTarget=0;fillColor=none;points=[[0,0.5],[1,0.5]];portConstraint=eastwest;fontSize=16;" vertex="1" parent="e2-MM5e5g2effqJGtoSD-194">
          <mxGeometry width="486" height="45" as="geometry" />
        </mxCell>
        <mxCell id="e2-MM5e5g2effqJGtoSD-196" value="&lt;u&gt;SahipID&lt;/u&gt;" style="shape=partialRectangle;html=1;whiteSpace=wrap;connectable=0;strokeColor=inherit;overflow=hidden;fillColor=none;top=0;left=0;bottom=0;right=0;pointerEvents=1;fontSize=16;" vertex="1" parent="e2-MM5e5g2effqJGtoSD-195">
          <mxGeometry width="81" height="45" as="geometry">
            <mxRectangle width="81" height="45" as="alternateBounds" />
          </mxGeometry>
        </mxCell>
        <mxCell id="e2-MM5e5g2effqJGtoSD-197" value="&lt;u&gt;HastaID&lt;/u&gt;" style="shape=partialRectangle;html=1;whiteSpace=wrap;connectable=0;strokeColor=inherit;overflow=hidden;fillColor=none;top=0;left=0;bottom=0;right=0;pointerEvents=1;fontSize=16;" vertex="1" parent="e2-MM5e5g2effqJGtoSD-195">
          <mxGeometry x="81" width="81" height="45" as="geometry">
            <mxRectangle width="81" height="45" as="alternateBounds" />
          </mxGeometry>
        </mxCell>
        <mxCell id="e2-MM5e5g2effqJGtoSD-198" value="yaş" style="shape=partialRectangle;html=1;whiteSpace=wrap;connectable=0;strokeColor=inherit;overflow=hidden;fillColor=none;top=0;left=0;bottom=0;right=0;pointerEvents=1;fontSize=16;" vertex="1" parent="e2-MM5e5g2effqJGtoSD-195">
          <mxGeometry x="162" width="81" height="45" as="geometry">
            <mxRectangle width="81" height="45" as="alternateBounds" />
          </mxGeometry>
        </mxCell>
        <mxCell id="e2-MM5e5g2effqJGtoSD-199" value="boy" style="shape=partialRectangle;html=1;whiteSpace=wrap;connectable=0;strokeColor=inherit;overflow=hidden;fillColor=none;top=0;left=0;bottom=0;right=0;pointerEvents=1;fontSize=16;" vertex="1" parent="e2-MM5e5g2effqJGtoSD-195">
          <mxGeometry x="243" width="81" height="45" as="geometry">
            <mxRectangle width="81" height="45" as="alternateBounds" />
          </mxGeometry>
        </mxCell>
        <mxCell id="e2-MM5e5g2effqJGtoSD-200" value="isim" style="shape=partialRectangle;html=1;whiteSpace=wrap;connectable=0;strokeColor=inherit;overflow=hidden;fillColor=none;top=0;left=0;bottom=0;right=0;pointerEvents=1;fontSize=16;" vertex="1" parent="e2-MM5e5g2effqJGtoSD-195">
          <mxGeometry x="324" width="81" height="45" as="geometry">
            <mxRectangle width="81" height="45" as="alternateBounds" />
          </mxGeometry>
        </mxCell>
        <mxCell id="e2-MM5e5g2effqJGtoSD-201" value="kilo" style="shape=partialRectangle;html=1;whiteSpace=wrap;connectable=0;strokeColor=inherit;overflow=hidden;fillColor=none;top=0;left=0;bottom=0;right=0;pointerEvents=1;fontSize=16;" vertex="1" parent="e2-MM5e5g2effqJGtoSD-195">
          <mxGeometry x="405" width="81" height="45" as="geometry">
            <mxRectangle width="81" height="45" as="alternateBounds" />
          </mxGeometry>
        </mxCell>
        <mxCell id="e2-MM5e5g2effqJGtoSD-202" value="Hasta Hayvan" style="text;strokeColor=none;fillColor=none;html=1;fontSize=24;fontStyle=1;verticalAlign=middle;align=left;" vertex="1" parent="e2-MM5e5g2effqJGtoSD-193">
          <mxGeometry x="-305.65999999999997" y="-35.129999999999995" width="135.1851851851852" height="40" as="geometry" />
        </mxCell>
        <mxCell id="e2-MM5e5g2effqJGtoSD-203" style="edgeStyle=orthogonalEdgeStyle;rounded=0;orthogonalLoop=1;jettySize=auto;html=1;" edge="1" parent="1" source="e2-MM5e5g2effqJGtoSD-135" target="e2-MM5e5g2effqJGtoSD-117">
          <mxGeometry relative="1" as="geometry">
            <Array as="points">
              <mxPoint x="-1690" y="1471" />
              <mxPoint x="-1690" y="1390" />
            </Array>
          </mxGeometry>
        </mxCell>
        <mxCell id="e2-MM5e5g2effqJGtoSD-204" style="edgeStyle=orthogonalEdgeStyle;rounded=0;orthogonalLoop=1;jettySize=auto;html=1;" edge="1" parent="1" source="e2-MM5e5g2effqJGtoSD-183" target="e2-MM5e5g2effqJGtoSD-117">
          <mxGeometry relative="1" as="geometry">
            <Array as="points">
              <mxPoint x="-1710" y="1581" />
              <mxPoint x="-1710" y="1371" />
            </Array>
          </mxGeometry>
        </mxCell>
        <mxCell id="e2-MM5e5g2effqJGtoSD-205" style="edgeStyle=orthogonalEdgeStyle;rounded=0;orthogonalLoop=1;jettySize=auto;html=1;" edge="1" parent="1" source="e2-MM5e5g2effqJGtoSD-125" target="e2-MM5e5g2effqJGtoSD-117">
          <mxGeometry relative="1" as="geometry">
            <Array as="points">
              <mxPoint x="-1730" y="1677" />
              <mxPoint x="-1730" y="1360" />
            </Array>
          </mxGeometry>
        </mxCell>
        <mxCell id="e2-MM5e5g2effqJGtoSD-206" style="edgeStyle=orthogonalEdgeStyle;rounded=0;orthogonalLoop=1;jettySize=auto;html=1;" edge="1" parent="1" source="e2-MM5e5g2effqJGtoSD-187" target="e2-MM5e5g2effqJGtoSD-135">
          <mxGeometry relative="1" as="geometry">
            <Array as="points">
              <mxPoint x="-1471" y="1940" />
              <mxPoint x="-1050" y="1940" />
              <mxPoint x="-1050" y="1540" />
              <mxPoint x="-1616" y="1540" />
            </Array>
          </mxGeometry>
        </mxCell>
        <mxCell id="e2-MM5e5g2effqJGtoSD-207" value="" style="shape=table;startSize=0;container=1;collapsible=0;childLayout=tableLayout;fontSize=16;" vertex="1" parent="1">
          <mxGeometry x="-620" y="1937.2300000000002" width="240" height="33.08999999999953" as="geometry" />
        </mxCell>
        <mxCell id="e2-MM5e5g2effqJGtoSD-208" value="" style="shape=tableRow;horizontal=0;startSize=0;swimlaneHead=0;swimlaneBody=0;strokeColor=inherit;top=0;left=0;bottom=0;right=0;collapsible=0;dropTarget=0;fillColor=none;points=[[0,0.5],[1,0.5]];portConstraint=eastwest;fontSize=16;" vertex="1" parent="e2-MM5e5g2effqJGtoSD-207">
          <mxGeometry width="240" height="33" as="geometry" />
        </mxCell>
        <mxCell id="e2-MM5e5g2effqJGtoSD-209" value="&lt;u&gt;İlaçID&lt;/u&gt;" style="shape=partialRectangle;html=1;whiteSpace=wrap;connectable=0;strokeColor=inherit;overflow=hidden;fillColor=none;top=0;left=0;bottom=0;right=0;pointerEvents=1;fontSize=16;" vertex="1" parent="e2-MM5e5g2effqJGtoSD-208">
          <mxGeometry width="120" height="33" as="geometry">
            <mxRectangle width="120" height="33" as="alternateBounds" />
          </mxGeometry>
        </mxCell>
        <mxCell id="e2-MM5e5g2effqJGtoSD-210" value="&lt;div&gt;&lt;u&gt;&lt;font style=&quot;font-size: 16px;&quot;&gt;ReçeteID&lt;/font&gt;&lt;/u&gt;&lt;/div&gt;" style="shape=partialRectangle;html=1;whiteSpace=wrap;connectable=0;strokeColor=inherit;overflow=hidden;fillColor=none;top=0;left=0;bottom=0;right=0;pointerEvents=1;fontSize=16;" vertex="1" parent="e2-MM5e5g2effqJGtoSD-208">
          <mxGeometry x="120" width="120" height="33" as="geometry">
            <mxRectangle width="120" height="33" as="alternateBounds" />
          </mxGeometry>
        </mxCell>
        <mxCell id="e2-MM5e5g2effqJGtoSD-211" value="İçerir" style="text;strokeColor=none;fillColor=none;html=1;fontSize=24;fontStyle=1;verticalAlign=middle;align=left;" vertex="1" parent="1">
          <mxGeometry x="-620" y="1893.9100000000003" width="100" height="43.32" as="geometry" />
        </mxCell>
        <mxCell id="e2-MM5e5g2effqJGtoSD-212" value="" style="shape=table;startSize=0;container=1;collapsible=0;childLayout=tableLayout;fontSize=16;" vertex="1" parent="1">
          <mxGeometry x="-620" y="2057.46" width="240" height="42.62999999999949" as="geometry" />
        </mxCell>
        <mxCell id="e2-MM5e5g2effqJGtoSD-213" value="" style="shape=tableRow;horizontal=0;startSize=0;swimlaneHead=0;swimlaneBody=0;strokeColor=inherit;top=0;left=0;bottom=0;right=0;collapsible=0;dropTarget=0;fillColor=none;points=[[0,0.5],[1,0.5]];portConstraint=eastwest;fontSize=16;" vertex="1" parent="e2-MM5e5g2effqJGtoSD-212">
          <mxGeometry width="240" height="43" as="geometry" />
        </mxCell>
        <mxCell id="e2-MM5e5g2effqJGtoSD-214" value="&lt;u&gt;HayvanID&lt;/u&gt;" style="shape=partialRectangle;html=1;whiteSpace=wrap;connectable=0;strokeColor=inherit;overflow=hidden;fillColor=none;top=0;left=0;bottom=0;right=0;pointerEvents=1;fontSize=16;" vertex="1" parent="e2-MM5e5g2effqJGtoSD-213">
          <mxGeometry width="120" height="43" as="geometry">
            <mxRectangle width="120" height="43" as="alternateBounds" />
          </mxGeometry>
        </mxCell>
        <mxCell id="e2-MM5e5g2effqJGtoSD-215" value="Renk" style="shape=partialRectangle;html=1;whiteSpace=wrap;connectable=0;strokeColor=inherit;overflow=hidden;fillColor=none;top=0;left=0;bottom=0;right=0;pointerEvents=1;fontSize=16;" vertex="1" parent="e2-MM5e5g2effqJGtoSD-213">
          <mxGeometry x="120" width="120" height="43" as="geometry">
            <mxRectangle width="120" height="43" as="alternateBounds" />
          </mxGeometry>
        </mxCell>
        <mxCell id="e2-MM5e5g2effqJGtoSD-216" value="Renkler" style="text;strokeColor=none;fillColor=none;html=1;fontSize=24;fontStyle=1;verticalAlign=middle;align=left;" vertex="1" parent="1">
          <mxGeometry x="-620" y="2014.14" width="100" height="43.32" as="geometry" />
        </mxCell>
        <mxCell id="e2-MM5e5g2effqJGtoSD-217" style="edgeStyle=orthogonalEdgeStyle;rounded=0;orthogonalLoop=1;jettySize=auto;html=1;" edge="1" parent="1" source="e2-MM5e5g2effqJGtoSD-195" target="e2-MM5e5g2effqJGtoSD-125">
          <mxGeometry relative="1" as="geometry">
            <Array as="points">
              <mxPoint x="-1690" y="2105" />
              <mxPoint x="-1690" y="1730" />
              <mxPoint x="-1600" y="1730" />
            </Array>
          </mxGeometry>
        </mxCell>
        <mxCell id="e2-MM5e5g2effqJGtoSD-218" style="edgeStyle=orthogonalEdgeStyle;rounded=0;orthogonalLoop=1;jettySize=auto;html=1;" edge="1" parent="1" source="e2-MM5e5g2effqJGtoSD-208" target="e2-MM5e5g2effqJGtoSD-187">
          <mxGeometry relative="1" as="geometry">
            <Array as="points">
              <mxPoint x="-450" y="2050" />
              <mxPoint x="-1620" y="2050" />
            </Array>
          </mxGeometry>
        </mxCell>
        <mxCell id="e2-MM5e5g2effqJGtoSD-219" style="edgeStyle=orthogonalEdgeStyle;rounded=0;orthogonalLoop=1;jettySize=auto;html=1;" edge="1" parent="1" source="e2-MM5e5g2effqJGtoSD-148" target="e2-MM5e5g2effqJGtoSD-132">
          <mxGeometry relative="1" as="geometry">
            <Array as="points">
              <mxPoint x="-610" y="1650" />
              <mxPoint x="-1605" y="1650" />
              <mxPoint x="-1605" y="1657" />
            </Array>
          </mxGeometry>
        </mxCell>
        <mxCell id="e2-MM5e5g2effqJGtoSD-220" style="edgeStyle=orthogonalEdgeStyle;rounded=0;orthogonalLoop=1;jettySize=auto;html=1;" edge="1" parent="1" source="e2-MM5e5g2effqJGtoSD-148" target="e2-MM5e5g2effqJGtoSD-146">
          <mxGeometry relative="1" as="geometry">
            <Array as="points">
              <mxPoint x="-490" y="1440" />
              <mxPoint x="-1601" y="1440" />
            </Array>
          </mxGeometry>
        </mxCell>
        <mxCell id="e2-MM5e5g2effqJGtoSD-221" style="edgeStyle=orthogonalEdgeStyle;rounded=0;orthogonalLoop=1;jettySize=auto;html=1;" edge="1" parent="1" source="e2-MM5e5g2effqJGtoSD-160" target="e2-MM5e5g2effqJGtoSD-125">
          <mxGeometry relative="1" as="geometry">
            <Array as="points">
              <mxPoint x="-477" y="1760" />
              <mxPoint x="-1584" y="1760" />
            </Array>
          </mxGeometry>
        </mxCell>
        <mxCell id="e2-MM5e5g2effqJGtoSD-222" style="edgeStyle=orthogonalEdgeStyle;rounded=0;orthogonalLoop=1;jettySize=auto;html=1;" edge="1" parent="1" source="e2-MM5e5g2effqJGtoSD-155" target="e2-MM5e5g2effqJGtoSD-176">
          <mxGeometry relative="1" as="geometry">
            <Array as="points">
              <mxPoint x="-1010" y="1715" />
              <mxPoint x="-1010" y="1870" />
              <mxPoint x="-1610" y="1870" />
            </Array>
          </mxGeometry>
        </mxCell>
        <mxCell id="e2-MM5e5g2effqJGtoSD-223" style="edgeStyle=orthogonalEdgeStyle;rounded=0;orthogonalLoop=1;jettySize=auto;html=1;" edge="1" parent="1" source="e2-MM5e5g2effqJGtoSD-155" target="e2-MM5e5g2effqJGtoSD-135">
          <mxGeometry relative="1" as="geometry">
            <Array as="points">
              <mxPoint x="-460" y="1520" />
              <mxPoint x="-1590" y="1520" />
            </Array>
          </mxGeometry>
        </mxCell>
        <mxCell id="e2-MM5e5g2effqJGtoSD-224" style="edgeStyle=orthogonalEdgeStyle;rounded=0;orthogonalLoop=1;jettySize=auto;html=1;" edge="1" parent="1" source="e2-MM5e5g2effqJGtoSD-135" target="e2-MM5e5g2effqJGtoSD-183">
          <mxGeometry relative="1" as="geometry">
            <Array as="points">
              <mxPoint x="-720" y="1471" />
              <mxPoint x="-720" y="1510" />
              <mxPoint x="-1568" y="1510" />
            </Array>
          </mxGeometry>
        </mxCell>
        <mxCell id="e2-MM5e5g2effqJGtoSD-225" style="edgeStyle=orthogonalEdgeStyle;rounded=0;orthogonalLoop=1;jettySize=auto;html=1;" edge="1" parent="1" source="e2-MM5e5g2effqJGtoSD-176" target="e2-MM5e5g2effqJGtoSD-125">
          <mxGeometry relative="1" as="geometry">
            <Array as="points">
              <mxPoint x="-1210" y="1902" />
              <mxPoint x="-1210" y="1740" />
              <mxPoint x="-1560" y="1740" />
            </Array>
          </mxGeometry>
        </mxCell>
        <mxCell id="e2-MM5e5g2effqJGtoSD-226" style="edgeStyle=orthogonalEdgeStyle;rounded=0;orthogonalLoop=1;jettySize=auto;html=1;entryX=0.265;entryY=0.995;entryDx=0;entryDy=0;entryPerimeter=0;" edge="1" parent="1" source="e2-MM5e5g2effqJGtoSD-213" target="e2-MM5e5g2effqJGtoSD-195">
          <mxGeometry relative="1" as="geometry">
            <mxPoint x="-1100" y="2120" as="targetPoint" />
            <Array as="points">
              <mxPoint x="-550" y="2170" />
              <mxPoint x="-1530" y="2170" />
              <mxPoint x="-1530" y="2125" />
            </Array>
          </mxGeometry>
        </mxCell>
        <mxCell id="e2-MM5e5g2effqJGtoSD-227" style="edgeStyle=orthogonalEdgeStyle;rounded=0;orthogonalLoop=1;jettySize=auto;html=1;" edge="1" parent="1" source="e2-MM5e5g2effqJGtoSD-186" target="e2-MM5e5g2effqJGtoSD-195">
          <mxGeometry relative="1" as="geometry">
            <mxPoint x="-1640" y="2250" as="targetPoint" />
            <Array as="points">
              <mxPoint x="-1100" y="2009" />
              <mxPoint x="-1100" y="2150" />
              <mxPoint x="-1620" y="2150" />
            </Array>
          </mxGeometry>
        </mxCell>
        <mxCell id="e2-MM5e5g2effqJGtoSD-228" style="edgeStyle=orthogonalEdgeStyle;rounded=0;orthogonalLoop=1;jettySize=auto;html=1;" edge="1" parent="1" source="e2-MM5e5g2effqJGtoSD-208" target="e2-MM5e5g2effqJGtoSD-167">
          <mxGeometry relative="1" as="geometry">
            <Array as="points">
              <mxPoint x="-955" y="1954" />
              <mxPoint x="-955" y="1840" />
              <mxPoint x="-1610" y="1840" />
            </Array>
          </mxGeometry>
        </mxCell>
        <mxCell id="e2-MM5e5g2effqJGtoSD-229" style="edgeStyle=orthogonalEdgeStyle;rounded=0;orthogonalLoop=1;jettySize=auto;html=1;" edge="1" parent="1" source="e2-MM5e5g2effqJGtoSD-167" target="e2-MM5e5g2effqJGtoSD-183">
          <mxGeometry relative="1" as="geometry">
            <Array as="points">
              <mxPoint x="-1100" y="1791" />
              <mxPoint x="-1100" y="1581" />
            </Array>
          </mxGeometry>
        </mxCell>
      </root>
    </mxGraphModel>
  </diagram>
</mxfile>
